# xmcd
#
# Track frame offsets: 
#        150
#        19274
#        46423
#        64983
#        83250
#        99385
#        117459
#        154015
#        184157
#        204506
#        232395
#        243032
#        265453
#
# Disc length: 3765 seconds
#
# Revision: 0
# Processed by: cddbd v1.5.2PL0 Copyright (c) Steve Scherf et al.
# Submitted via: ExactAudioCopyFreeDBPlugin 1.0
#
DISCID=ae0eb30d
DTITLE=Ryan Bingham - Tomorrowland
DYEAR=1900
DGENRE=Country
TTITLE0=Beg For Broken Legs
TTITLE1=Western Shore
TTITLE2=Flower Bomb
TTITLE3=Guess Who's Knocking
TTITLE4=Heart Of Rythm
TTITLE5=I Heard 'Em Say
TTITLE6=Rising Of The Ghetto
TTITLE7=No Help From God
TTITLE8=Keep It Together
TTITLE9=Never Far Behind
TTITLE10=The Road I'm On
TTITLE11=Neverending Show
TTITLE12=Too Deep To Fill
EXTD=
EXTT0=
EXTT1=
EXTT2=
EXTT3=
EXTT4=
EXTT5=
EXTT6=
EXTT7=
EXTT8=
EXTT9=
EXTT10=
EXTT11=
EXTT12=
PLAYORDER=
